<svg width="1152" height="700" viewBox="0 0 1152 700" fill="none" xmlns="http://www.w3.org/2000/svg">
<ellipse cx="184.862" cy="743.496" rx="289.5" ry="398.5" transform="rotate(27 184.862 743.496)" fill="#F0DC96"/>
<path d="M207 403.5L180.5 179.5L237.006 286.632L279.5 189L289.623 235L313.5 343.5L337.315 320L387.5 144V270.478L540.5 119.5L398.5 343.5L455.169 320L523.5 199.5H565L544.673 282.884L630 247.5L499 357L630 320L424.5 491.5L207 403.5Z" fill="#2B8750"/>
<rect x="101" y="459.892" width="80" height="80" transform="rotate(-10 101 459.892)" fill="#F1CC83"/>
<rect x="222" y="505.892" width="80" height="80" transform="rotate(-10 222 505.892)" fill="#F1CC83"/>
<rect x="359" y="551.892" width="80" height="80" transform="rotate(-10 359 551.892)" fill="#F1CC83"/>
<rect y="560.892" width="80" height="80" transform="rotate(-10 0 560.892)" fill="#F1CC83"/>
<rect x="141" y="610.892" width="80" height="80" transform="rotate(-10 141 610.892)" fill="#F1CC83"/>
<rect x="22" y="677.892" width="80" height="80" transform="rotate(-10 22 677.892)" fill="#F1CC83"/>
<rect x="266" y="653.892" width="80" height="80" transform="rotate(-10 266 653.892)" fill="#F1CC83"/>
<rect x="391" y="685.892" width="80" height="80" transform="rotate(-10 391 685.892)" fill="#F1CC83"/>
<path d="M1196 609.5C1196 729.07 1102.2 826 986.5 826C870.796 826 777 729.07 777 609.5C777 489.93 870.796 393 986.5 393C1102.2 393 1196 489.93 1196 609.5Z" fill="#FF9153"/>
<ellipse cx="1048.5" cy="164" rx="271.5" ry="282" fill="#337C59"/>
<ellipse cx="1049" cy="164.171" rx="263" ry="273.171" fill="#CCEADB"/>
<path d="M830.18 193.801L1038.95 181.823C1048.19 181.292 1053.91 191.723 1048.5 199.235L928.071 366.381C924.465 371.385 917.414 372.439 912.575 368.615C848.907 318.288 832.412 277.537 820.024 206.556C818.902 200.129 823.667 194.175 830.18 193.801Z" fill="#FBCED6"/>
<path d="M829.168 151.5H1035.99C1045.71 151.5 1050.65 139.813 1043.88 132.838L903.201 -12.0673C898.954 -16.4419 891.927 -16.5141 887.653 -12.1657C835.682 40.713 820.672 77.3889 818.291 140.315C818.059 146.451 823.028 151.5 829.168 151.5Z" fill="#FBCED6"/>
<path d="M973.151 386.467L1074.17 203.713C1078.91 195.14 1091.64 196.57 1094.36 205.981L1147.11 388.489C1148.73 394.103 1145.66 400.032 1140.1 401.831C1078.84 421.652 1040.17 418.918 979.727 402.258C972.931 400.385 969.741 392.636 973.151 386.467Z" fill="#FBCED6"/>
<path d="M976.161 -15.4059L1074.98 144.092C1079.83 151.925 1091.58 150.678 1094.69 142.002L1155.37 -27.7468C1158.03 -35.1947 1152.2 -42.9343 1144.3 -42.4271L984.806 -32.1765C976.517 -31.6438 971.786 -22.4673 976.161 -15.4059Z" fill="#FBCED6"/>
<path d="M1162.03 303.855L1100.82 185.156C1097.15 178.052 1102.05 169.537 1110.03 169.128L1204.84 164.276C1212.32 163.893 1217.98 170.925 1216.02 178.148L1182.42 301.699C1179.79 311.381 1166.63 312.773 1162.03 303.855Z" fill="#FBCED6"/>
<path d="M1163.7 38.0703L1124.66 128.125C1121.52 135.389 1126.84 143.5 1134.76 143.5H1204.61C1212.15 143.5 1217.46 136.077 1215.02 128.938L1184.2 38.8836C1180.95 29.3754 1167.7 28.8498 1163.7 38.0703Z" fill="#FBCED6"/>
<path d="M830.18 193.801L1038.95 181.823C1048.19 181.292 1053.91 191.723 1048.5 199.235L928.071 366.381C924.465 371.385 917.414 372.439 912.575 368.615C848.907 318.288 832.412 277.537 820.024 206.556C818.902 200.129 823.667 194.175 830.18 193.801Z" stroke="#FFFBFB" stroke-width="8"/>
<path d="M829.168 151.5H1035.99C1045.71 151.5 1050.65 139.813 1043.88 132.838L903.201 -12.0673C898.954 -16.4419 891.927 -16.5141 887.653 -12.1657C835.682 40.713 820.672 77.3889 818.291 140.315C818.059 146.451 823.028 151.5 829.168 151.5Z" stroke="#FFFBFB" stroke-width="8"/>
<path d="M973.151 386.467L1074.17 203.713C1078.91 195.14 1091.64 196.57 1094.36 205.981L1147.11 388.489C1148.73 394.103 1145.66 400.032 1140.1 401.831C1078.84 421.652 1040.17 418.918 979.727 402.258C972.931 400.385 969.741 392.636 973.151 386.467Z" stroke="#FFFBFB" stroke-width="8"/>
<path d="M976.161 -15.4059L1074.98 144.092C1079.83 151.925 1091.58 150.678 1094.69 142.002L1155.37 -27.7468C1158.03 -35.1947 1152.2 -42.9343 1144.3 -42.4271L984.806 -32.1765C976.517 -31.6438 971.786 -22.4673 976.161 -15.4059Z" stroke="#FFFBFB" stroke-width="8"/>
<path d="M1162.03 303.855L1100.82 185.156C1097.15 178.052 1102.05 169.537 1110.03 169.128L1204.84 164.276C1212.32 163.893 1217.98 170.925 1216.02 178.148L1182.42 301.699C1179.79 311.381 1166.63 312.773 1162.03 303.855Z" stroke="#FFFBFB" stroke-width="8"/>
<path d="M1163.7 38.0703L1124.66 128.125C1121.52 135.389 1126.84 143.5 1134.76 143.5H1204.61C1212.15 143.5 1217.46 136.077 1215.02 128.938L1184.2 38.8836C1180.95 29.3754 1167.7 28.8498 1163.7 38.0703Z" stroke="#FFFBFB" stroke-width="8"/>
<rect x="648" y="215" width="35" height="554" fill="#D2FCE5"/>
<line x1="640" y1="302.5" x2="692" y2="302.5" stroke="#F1E1B6" stroke-width="5"/>
<line x1="640" y1="254.5" x2="692" y2="254.5" stroke="#F1E1B6" stroke-width="5"/>
<line x1="640" y1="347.5" x2="692" y2="347.5" stroke="#F1E1B6" stroke-width="5"/>
<line x1="640" y1="390.5" x2="692" y2="390.5" stroke="#F1E1B6" stroke-width="5"/>
<line x1="640" y1="434.5" x2="692" y2="434.5" stroke="#F1E1B6" stroke-width="5"/>
<line x1="640" y1="481.5" x2="692" y2="481.5" stroke="#F1E1B6" stroke-width="5"/>
<line x1="640" y1="527.5" x2="692" y2="527.5" stroke="#F1E1B6" stroke-width="5"/>
<line x1="640" y1="570.5" x2="692" y2="570.5" stroke="#F1E1B6" stroke-width="5"/>
<line x1="640" y1="682.5" x2="692" y2="682.5" stroke="#F1E1B6" stroke-width="5"/>
<path d="M639.195 604.637C674.051 574.273 695.931 579.049 726.412 602.485C734.145 608.43 744.973 608.493 752.679 602.512C803.759 562.864 832.518 562.719 869.885 604.78C874.422 609.888 875.703 617.114 873.508 623.584C849.428 694.574 828.126 738.86 789.553 804.292C783.001 815.408 767.725 817.34 758.598 808.219C695.713 745.374 661.587 701.915 634.097 625.017C631.52 617.808 633.422 609.666 639.195 604.637Z" fill="#EB5F78"/>
<path d="M684 561L746 596.5L710.5 643V621.5L673.5 657V630.5H639.5L656.5 621.5L602.5 606H656.5L639.5 573.5L684 587.5V561Z" fill="#205743"/>
<path d="M779.42 654.339L743.572 593.78L795.293 558.39L785.256 580.932L833.111 557.64L820.741 585.424L849.487 598.223L830.913 601.259L869.334 637.838L823.677 617.51L822.879 657.985L791.791 626.555L779.42 654.339Z" fill="#205743"/>
<rect x="740" y="561" width="11" height="49" fill="#205743"/>
</svg>
