<svg width="203" height="203" viewBox="0 0 203 203" fill="none" xmlns="http://www.w3.org/2000/svg">
<circle cx="101.5" cy="101.5" r="101.5" fill="white"/>
<ellipse cx="58.5" cy="120" rx="25.5" ry="25" fill="#F12330"/>
<ellipse cx="122.5" cy="142" rx="25.5" ry="25" fill="#F12330"/>
<path d="M72 106C97.8538 96.3678 108.291 85.9574 118.5 57C132.191 83.6515 135.3 97.8974 129 121.5" stroke="#337C59" stroke-width="2"/>
<path d="M175.963 58.2904C141.705 39.5379 129.008 39.9488 119.301 55.3862C117.806 57.7631 118.102 60.8927 120.183 62.778C131.631 73.1518 147.817 70.7345 174.825 65.5566C176.667 65.2036 178 63.591 178 61.7161C178 60.2952 177.209 58.9727 175.963 58.2904Z" fill="#2B8750"/>
<path d="M128.323 129.037C117.869 122.278 109.952 123.754 108.458 138.973C108.277 140.814 110.555 141.727 111.907 140.464C116.657 136.024 121.088 133.984 127.559 132.533C129.254 132.153 129.782 129.98 128.323 129.037Z" fill="#FAD5E0"/>
<path d="M61.3234 106.037C50.8688 99.2784 42.9524 100.754 41.458 115.973C41.2773 117.814 43.5553 118.727 44.9065 117.464C49.6574 113.024 54.0877 110.984 60.5595 109.533C62.2538 109.153 62.7816 106.98 61.3234 106.037Z" fill="#FAD5E0"/>
</svg>
