<svg width="203" height="203" viewBox="0 0 203 203" fill="none" xmlns="http://www.w3.org/2000/svg">
<circle cx="101.5" cy="101.5" r="101.5" fill="white"/>
<path d="M108.5 33.5C1.00011 33.5 33 204 142 152.5L108.5 33.5Z" fill="#FFF171"/>
<ellipse cx="127.195" cy="91.5103" rx="25.0767" ry="62" transform="rotate(-16 127.195 91.5103)" fill="#FFFDE7"/>
<path d="M112.423 95.9589L122.688 92.8144C126.989 91.4968 131.157 95.2062 130.347 99.6314L126.61 120.05C125.755 124.725 120.077 126.538 117.303 122.678C113.391 117.237 110.968 111.382 108.466 103.338C107.494 100.213 109.293 96.9175 112.423 95.9589Z" fill="#FFD977"/>
<path d="M111.092 88.1369L121.26 86.1605C125.694 85.2986 127.621 80.0312 124.791 76.511L113.819 62.8656C110.83 59.1482 104.907 60.257 104.103 64.9589C103.081 70.9414 103.172 76.4088 104.159 83.3214C104.63 86.621 107.82 88.7729 111.092 88.1369Z" fill="#FFD977"/>
<path d="M130.759 129.575L132.15 115.655C132.785 109.302 141.586 108.205 143.762 114.208L148.393 126.99C149.204 129.226 148.665 131.796 146.746 133.201C142.857 136.047 139.481 136.559 135.011 135.693C132.211 135.151 130.475 132.412 130.759 129.575Z" fill="#FFD977"/>
<path d="M116.357 54.8013L123.543 67.4511C126.54 72.7275 134.579 70.729 134.757 64.6634L135.204 49.398C135.293 46.3717 133.113 43.7535 130.121 43.2923L126.09 42.6713C124.312 42.3972 122.504 42.9358 121.166 44.1385L117.564 47.3752C115.467 49.2596 114.965 52.3498 116.357 54.8013Z" fill="#FFD977"/>
<path d="M147.49 113.661L139.059 96.4545C136.759 91.7615 141.142 86.5762 146.152 88.0619L155.835 90.9328C158.481 91.7175 160.251 94.2063 160.123 96.9635L159.534 109.641C159.503 110.309 159.361 110.967 159.113 111.588L158.45 113.247C156.521 118.077 149.779 118.332 147.49 113.661Z" fill="#FFD977"/>
<path d="M139.402 57.8941L137.124 76.046C136.623 80.0315 140.104 83.3734 144.066 82.7111L152.412 81.316C155.799 80.7498 158.021 77.4611 157.282 74.1072L154.199 60.115C153.936 58.9208 153.314 57.8355 152.417 57.0045L149.433 54.2398C145.849 50.9194 140.011 53.0462 139.402 57.8941Z" fill="#FFD977"/>
<ellipse cx="48" cy="117" rx="11" ry="6" fill="#FFF171"/>
</svg>
